<?xml version="1.0" encoding="utf-8"?>
<!-- Generator: Adobe Illustrator 19.1.0, SVG Export Plug-In . SVG Version: 6.00 Build 0)  -->
<svg version="1.1" id="Layer_1" xmlns="http://www.w3.org/2000/svg" xmlns:xlink="http://www.w3.org/1999/xlink" x="0px" y="0px"
	 viewBox="0 0 250 50" style="enable-background:new 0 0 250 50;" xml:space="preserve">
<style type="text/css">
	.st0{fill:#FFFFFF;stroke:#000000;stroke-miterlimit:10;}
	.st1{fill:#4B759B;}
	.st2{fill:#6097BF;}
	.st3{fill:#305073;}
	.st4{fill:#25354C;}
	.st5{fill:#91C0DD;}
	.st6{fill:#19273C;}
	.st7{fill:#FFFFFF;}
	.st8{fill:none;stroke:#FFFFFF;stroke-linecap:round;stroke-miterlimit:10;}
	.st9{font-family:'Garamond3LTStd-Bold';}
	.st10{font-size:21.4917px;}
	.st11{font-family:'OpenSans-Semibold';}
	.st12{font-size:16.1633px;}
</style>
<path class="st0" d="M235.3,514.7c0,2.9-2.4,5.3-5.3,5.3H40.6c-2.9,0-5.3-2.4-5.3-5.3v-28.4c0-2.9,2.4-5.3,5.3-5.3H230
	c2.9,0,5.3,2.4,5.3,5.3V514.7z"/>
<g>
	<g>
		<polygon class="st1" points="600.8,234.4 462.1,314.5 600.8,394.5 		"/>
		<polygon class="st2" points="739.4,314.5 600.8,234.4 600.8,394.5 		"/>
		<polygon class="st3" points="462.1,314.5 462.1,474.6 600.8,394.5 		"/>
		<polygon class="st4" points="462.1,474.6 600.7,554.6 600.8,394.5 		"/>
		<polygon class="st5" points="600.8,394.5 739.4,474.6 739.4,314.5 		"/>
		<polygon class="st6" points="600.7,554.6 739.4,474.6 600.8,394.5 		"/>
	</g>
	<g>
		<path class="st4" d="M355.7,616.6h13.8v53.1h-13.8V616.6z"/>
		<path class="st4" d="M400.5,649.2c-4-3.5-7.6-7.9-7.6-7.9s1,6.8,1,11.2v17.3h-12.7v-53.8h1.1l24.5,21.2c4.3,3.8,7.6,8,7.6,8
			s-0.8-6.9-0.8-11.3v-17.2h12.7v53.9h-1.1L400.5,649.2z"/>
		<path class="st4" d="M457.1,649.2c-4-3.5-7.6-7.9-7.6-7.9s1,6.8,1,11.2v17.3h-12.7v-53.8h1.1l24.5,21.2c4.3,3.8,7.6,8,7.6,8
			s-0.8-6.9-0.8-11.3v-17.2h12.7v53.9h-1.1L457.1,649.2z"/>
		<path class="st4" d="M493,643.2c0-16.3,13-27.5,28.6-27.5c15.6,0,28.6,11.2,28.6,27.5c0,16.1-13,27.5-28.6,27.5
			C506,670.6,493,659.2,493,643.2z M536,643.2c0-8.9-5.9-15.3-14.5-15.3c-8.5,0-14.4,6.3-14.4,15.3c0,9.2,5.9,15.3,14.4,15.3
			C530.1,658.4,536,652.3,536,643.2z"/>
		<path class="st4" d="M552.2,616.6h15.3l6.8,15.5c2.7,6.3,4.4,13.2,4.4,13.2s1.6-7,4.4-13.2l6.8-15.5h14l-25.1,53.8h-1.2
			L552.2,616.6z"/>
		<path class="st4" d="M621.8,616h1.1l25,53.7h-14.3l-1.8-4.3h-19.6l-1.8,4.3h-13.4L621.8,616z M628.3,656.1l-2.2-5.3
			c-2.3-5.5-4-11.2-4-11.2s-1.4,5.7-3.9,11.2l-2.3,5.3H628.3z"/>
		<path class="st4" d="M660.5,628.6h-15.1v-12h44.1v12h-15.1v41.1h-13.9V628.6z"/>
		<path class="st4" d="M699,616.6h13.8v53.1H699V616.6z"/>
		<path class="st4" d="M723.1,643.2c0-16.3,13-27.5,28.6-27.5c15.6,0,28.6,11.2,28.6,27.5c0,16.1-13,27.5-28.6,27.5
			C736.2,670.6,723.1,659.2,723.1,643.2z M766.2,643.2c0-8.9-5.9-15.3-14.5-15.3c-8.5,0-14.5,6.3-14.5,15.3
			c0,9.2,5.9,15.3,14.5,15.3C760.3,658.4,766.2,652.3,766.2,643.2z"/>
		<path class="st4" d="M809.7,649.2c-4-3.5-7.6-7.9-7.6-7.9s1,6.8,1,11.2v17.3h-12.7v-53.8h1.1l24.5,21.2c4.3,3.8,7.6,8,7.6,8
			s-0.8-6.9-0.8-11.3v-17.2h12.7v53.9h-1.1L809.7,649.2z"/>
		<path class="st4" d="M352.5,746.1c0-31.9,24.4-54.6,53.9-54.6c19.7,0,32.3,7.1,41.9,20.5l-6.2,4.7c-8.1-11.1-19.3-17.8-35.7-17.8
			c-26.1,0-45.2,20.5-45.2,47.1c0,26.8,19,47.3,44.5,47.3c17.3,0,30-7.5,38.1-18.6l6.4,4.7c-9.4,13.5-24.2,21.4-44.5,21.4
			C376.9,800.9,352.5,778.2,352.5,746.1z"/>
		<path class="st4" d="M455.8,746.1c0-32.1,25.3-54.6,55.2-54.6c30.2,0,55,22.5,55,54.6c0,32.1-24.8,54.8-55,54.8
			C481.1,800.9,455.8,778.2,455.8,746.1z M557.3,746.1c0-26.8-19.3-47.1-46.2-47.1c-27,0-46.4,20.3-46.4,47.1
			c0,26.8,19.5,47.3,46.4,47.3C538,793.4,557.3,772.8,557.3,746.1z"/>
		<path class="st4" d="M578.1,746.9h25.6v7.7h-25.6V746.9z"/>
		<path class="st4" d="M618.1,693.2h8.6v98.5h40.4v7.5h-49V693.2z"/>
		<path class="st4" d="M692,779.9l-7.7,19.3h-8.6l43.4-107.2h1.9l43.7,107.2h-9l-7.7-19.3 M745,772.4L724.3,720
			c-1.7-4.3-4.1-13.9-4.1-13.9s-2.6,9.6-4.3,13.9l-21,52.4"/>
		<path class="st4" d="M775.8,693.2h35.7c19.9,0,28.7,11.3,28.7,25.9c0,10.3-4.1,18-13.5,21.4c13.5,3,22.3,13.5,22.3,27.8
			c0,17.1-10.5,30.8-33.2,30.8h-40V693.2z M813.1,737.5c13.9,0,18.8-7.5,18.8-18.4c0-10.7-5.6-18.4-21.2-18.4h-26.3v36.8H813.1z
			 M815,791.7c18.6,0,25.3-9.6,25.3-23.3c0-13.7-7.5-23.5-25.5-23.5h-30.4v46.9H815z"/>
	</g>
</g>
<text transform="matrix(1 0 0 1 47.1955 505.1543)" class="st0 st9" style="font-size:17.0197px;">Duke</text>
<text transform="matrix(1 0 0 1 111.9929 505.1538)" class="st0" style="font-family:'OpenSans'; font-size:12.4497px;">Sign in with NetID</text>
<line class="st0" x1="99.3" y1="487.5" x2="99.3" y2="512.5"/>
<path class="st3" d="M249.8,363.2c0,2.9-2.4,5.3-5.3,5.3H5.1c-2.9,0-5.3-2.4-5.3-5.3v-38.4c0-2.9,2.4-5.3,5.3-5.3h239.4
	c2.9,0,5.3,2.4,5.3,5.3V363.2z"/>
<text transform="matrix(1 0 0 1 15.4332 350.3613)" class="st7 st9" style="font-size:21.2746px;">Duke</text>
<text transform="matrix(1 0 0 1 87.6926 350.3613)" class="st7 st11" style="font-size:16px;">Sign in with NetID</text>
<line class="st8" x1="76.3" y1="328.5" x2="76.3" y2="359.5"/>
<path class="st3" d="M250,44.7c0,2.9-2.4,5.3-5.3,5.3H5.3C2.4,50,0,47.6,0,44.7V5.3C0,2.4,2.4,0,5.3,0h239.4c2.9,0,5.3,2.4,5.3,5.3
	V44.7z"/>
<text transform="matrix(1 0 0 1 15.749 30.6758)" class="st7 st9 st10">Duke</text>
<text transform="matrix(1 0 0 1 88.7461 30.6758)" class="st7 st11 st12">Sign in with NetID</text>
<line class="st8" x1="77.5" y1="9" x2="77.5" y2="40"/>
<rect x="0.2" y="232.6" class="st7" width="15.3" height="55.7"/>
<rect x="234.9" y="232.6" class="st7" width="15.3" height="55.7"/>
<rect x="76.2" y="232.6" class="st7" width="11.5" height="55.7"/>
<rect x="64.7" y="232.6" class="st7" width="11.5" height="55.7"/>
</svg>
